# xmcd
#
# Track frame offsets: 
#        150
#        31050
#        49446
#        69671
#        91123
#        118349
#        141526
#        163325
#        185405
#        208675
#        231392
#
# Disc length: 3470 seconds
#
# Revision: 0
# Processed by: cddbd v1.5.2PL0 Copyright (c) Steve Scherf et al.
# Submitted via: ExactAudioCopy v0.99pb4
#
DISCID=a90d8c0b
DTITLE=Harvey Mandel - Nightfire
DYEAR=2003
DGENRE=Blues
TTITLE0=Small Town Talk
TTITLE1=It's Getting Harder
TTITLE2=Free Flow
TTITLE3=Baby Batter
TTITLE4=Bad Luck Situation
TTITLE5=Believe In Yourself
TTITLE6=Nightfire
TTITLE7=Lost In Time
TTITLE8=Touch of Green
TTITLE9=Spider Web
TTITLE10=guest House
EXTD=
EXTT0=
EXTT1=
EXTT2=
EXTT3=
EXTT4=
EXTT5=
EXTT6=
EXTT7=
EXTT8=
EXTT9=
EXTT10=
PLAYORDER=
